<svg width="14" height="14" viewBox="0 0 14 14" fill="none" xmlns="http://www.w3.org/2000/svg">
<path fill-rule="evenodd" clip-rule="evenodd" d="M7.08444 12.9535C3.73763 13.1112 0.896628 10.526 0.738885 7.17916C0.581141 3.83235 3.16639 0.991343 6.5132 0.8336C9.86002 0.675857 12.701 3.26111 12.8588 6.60792C13.0165 9.95473 10.4313 12.7957 7.08444 12.9535ZM7.10484 13.3863C3.51897 13.5553 0.475042 10.7854 0.306032 7.19956C0.137021 3.61369 2.90693 0.569758 6.4928 0.400747C10.0787 0.231737 13.1226 3.00165 13.2916 6.58752C13.4606 10.1734 10.6907 13.2173 7.10484 13.3863Z" fill="white"/>
<path d="M5.94019 11.6729C5.90803 11.8295 5.7549 11.9314 5.60001 11.8918C3.33371 11.3122 1.70877 9.35179 1.59976 7.03893C1.52429 5.43768 2.20431 3.89454 3.40928 2.84207C3.53547 2.73069 3.73924 2.74452 3.84123 2.88028C3.94211 2.99266 3.92653 3.1691 3.81172 3.26823C2.73293 4.20933 2.1292 5.5966 2.19586 7.01084C2.29216 9.05412 3.72601 10.7885 5.71576 11.3215C5.87074 11.363 5.97248 11.5157 5.94019 11.6729V11.6729Z" fill="white"/>
<path d="M9.68996 10.6282C9.58938 10.5075 9.61127 10.3366 9.73641 10.2405C10.188 9.87636 10.5734 9.41652 10.8535 8.91611C11.1336 8.41571 11.3218 7.85255 11.3908 7.28247C11.4114 7.1344 11.5491 7.02758 11.704 7.03659C11.8708 7.04628 12.0058 7.19191 11.9839 7.36287C11.899 8.00092 11.6949 8.63205 11.3757 9.18759C11.0558 9.75457 10.6201 10.2574 10.1176 10.676C9.99177 10.7835 9.80179 10.761 9.68996 10.6282Z" fill="white"/>
<circle cx="6.7991" cy="6.8937" r="3.71428" transform="rotate(-2.69849 6.7991 6.8937)" fill="white"/>
</svg>
