<svg xmlns="http://www.w3.org/2000/svg" width="11" height="13" fill="none"><path fill="#D17448" fill-rule="evenodd" d="M5.453 4.081a3 3 0 0 0-1.349.207 2.9 2.9 0 0 0-1.121.783.4.4 0 0 1-.144.101.36.36 0 0 1-.333-.027c-.144-.096-.164-.285-.044-.422a3.792 3.792 0 0 1 3.107-1.245c.184.015.308.162.276.329-.032.166-.207.289-.392.274m4.183 1.233.472-.57a3.4 3.4 0 0 0-.642-1.104q.362-.455.594-1c.296-.7.402-1.47.306-2.232l-.457.05.456-.055a.46.46 0 0 0-.913.11l.002.014a3.42 3.42 0 0 1-.667 2.49 4.7 4.7 0 0 0-1.384-.7l-.72.635C4.18 2.176 1.447 3.407.407 5.865a5.13 5.13 0 0 0 2.75 6.73c2.624 1.102 5.648-.124 6.754-2.74a5.11 5.11 0 0 0-.274-4.541" clip-rule="evenodd"/></svg>