<svg xmlns="http://www.w3.org/2000/svg" width="160" height="56" fill="none"><g filter="url('#filter0_dii')"><path fill="url('#paint0_linear')" d="m37.832 22.048-1.395 1.708c2.247 3.997 2.712 8.925.775 13.466-3.254 7.722-12.204 11.37-19.914 8.11S5.947 33.148 9.201 25.387c3.06-7.296 11.12-10.944 18.558-8.615l2.13-1.902s1.976.543 4.069 2.057a13 13 0 0 0 1.24-2.173c.658-1.63.93-3.415.697-5.2l-.04-.04c-.077-.737.466-1.435 1.202-1.513.775-.078 1.433.466 1.51 1.164.31 2.29 0 4.58-.89 6.636-.426 1.087-1.046 2.096-1.744 2.988.775.893 1.434 1.98 1.899 3.26"/></g><path fill="#000" d="M75.45 16.474v27.774h-6.348V28.1L61.92 39.883h-.714L54.025 28.1v16.148h-6.349V16.474h6.349l7.538 12.34 7.539-12.34zM80.224 16.474h6.348v27.774h-6.348zM106.818 16.474h6.348v27.774h-4.761L97.692 29.171v15.077h-6.348V16.474h4.761l10.713 15.078zM124.272 38.138h11.11v6.11h-17.458V16.474h17.259v6.11h-10.911v4.603h9.919v6.03h-9.919zM148.684 44.803q-4.245 0-7.102-1.825-2.817-1.864-4.007-5.039l5.475-3.174q1.666 3.849 5.833 3.849 3.768 0 3.769-2.262 0-1.23-1.23-1.904-1.19-.715-4.523-1.627-1.746-.475-3.055-1.071a14 14 0 0 1-2.579-1.547 6.7 6.7 0 0 1-1.905-2.46q-.635-1.469-.635-3.373 0-3.849 2.738-6.15 2.778-2.301 6.586-2.301 3.412 0 6.031 1.627 2.619 1.587 4.127 4.642l-5.357 3.134q-.753-1.587-1.865-2.38-1.11-.834-2.936-.834-1.428 0-2.222.635-.753.595-.753 1.468 0 1.032.952 1.786.991.753 4.047 1.666 1.666.516 2.579.833.912.319 2.301 1.072 1.428.714 2.143 1.547.754.794 1.309 2.143.595 1.309.595 3.015 0 3.968-2.857 6.269-2.857 2.262-7.459 2.261"/><path stroke="url('#paint1_linear')" stroke-linejoin="round" d="M75.45 16.474v27.774h-6.348V28.1L61.92 39.883h-.714L54.025 28.1v16.148h-6.349V16.474h6.349l7.538 12.34 7.539-12.34z"/><path stroke="url('#paint2_linear')" stroke-linejoin="round" d="M80.224 16.474h6.348v27.774h-6.348z"/><path stroke="url('#paint3_linear')" stroke-linejoin="round" d="M106.818 16.474h6.348v27.774h-4.761L97.692 29.171v15.077h-6.348V16.474h4.761l10.713 15.078z"/><path stroke="url('#paint4_linear')" stroke-linejoin="round" d="M124.272 38.138h11.11v6.11h-17.458V16.474h17.259v6.11h-10.911v4.603h9.919v6.03h-9.919z"/><path stroke="url('#paint5_linear')" stroke-linejoin="round" d="M148.684 44.803q-4.245 0-7.102-1.825-2.817-1.864-4.007-5.039l5.475-3.174q1.666 3.849 5.833 3.849 3.768 0 3.769-2.262 0-1.23-1.23-1.904-1.19-.715-4.523-1.627-1.746-.475-3.055-1.071a14 14 0 0 1-2.579-1.547 6.7 6.7 0 0 1-1.905-2.46q-.635-1.469-.635-3.373 0-3.849 2.738-6.15 2.778-2.301 6.586-2.301 3.412 0 6.031 1.627 2.619 1.587 4.127 4.642l-5.357 3.134q-.753-1.587-1.865-2.38-1.11-.834-2.936-.834-1.428 0-2.222.635-.753.595-.753 1.468 0 1.032.952 1.786.991.753 4.047 1.666 1.666.516 2.579.833.912.319 2.301 1.072 1.428.714 2.143 1.547.754.794 1.309 2.143.595 1.309.595 3.015 0 3.968-2.857 6.269-2.857 2.262-7.459 2.261Z"/><defs><linearGradient id="paint0_linear" x1="2" x2="30.484" y1="47" y2="9.953" gradientUnits="userSpaceOnUse"><stop stop-color="#F5F922"/><stop offset="1" stop-color="#FF0B19"/></linearGradient><linearGradient id="paint1_linear" x1="43.819" x2="158.991" y1="48.983" y2="15.919" gradientUnits="userSpaceOnUse"><stop stop-color="#F9CB22"/><stop offset="1" stop-color="#ED0424"/></linearGradient><linearGradient id="paint2_linear" x1="43.819" x2="158.991" y1="48.983" y2="15.919" gradientUnits="userSpaceOnUse"><stop stop-color="#F9CB22"/><stop offset="1" stop-color="#ED0424"/></linearGradient><linearGradient id="paint3_linear" x1="43.819" x2="158.991" y1="48.983" y2="15.919" gradientUnits="userSpaceOnUse"><stop stop-color="#F9CB22"/><stop offset="1" stop-color="#ED0424"/></linearGradient><linearGradient id="paint4_linear" x1="43.819" x2="158.991" y1="48.983" y2="15.919" gradientUnits="userSpaceOnUse"><stop stop-color="#F9CB22"/><stop offset="1" stop-color="#ED0424"/></linearGradient><linearGradient id="paint5_linear" x1="43.819" x2="158.991" y1="48.983" y2="15.919" gradientUnits="userSpaceOnUse"><stop stop-color="#F9CB22"/><stop offset="1" stop-color="#ED0424"/></linearGradient><filter id="filter0_dii" width="46.676" height="54.534" x=".009" y=".993" color-interpolation-filters="sRGB" filterUnits="userSpaceOnUse"><feFlood flood-opacity="0" result="BackgroundImageFix"/><feColorMatrix in="SourceAlpha" result="hardAlpha" values="0 0 0 0 0 0 0 0 0 0 0 0 0 0 0 0 0 0 127 0"/><feOffset dy="1"/><feGaussianBlur stdDeviation="4"/><feColorMatrix values="0 0 0 0 0.954167 0 0 0 0 0.49076 0 0 0 0 0.461181 0 0 0 0.56 0"/><feBlend in2="BackgroundImageFix" mode="color-burn" result="effect1_dropShadow"/><feBlend in="SourceGraphic" in2="effect1_dropShadow" result="shape"/><feColorMatrix in="SourceAlpha" result="hardAlpha" values="0 0 0 0 0 0 0 0 0 0 0 0 0 0 0 0 0 0 127 0"/><feOffset dx="-1" dy="-1"/><feGaussianBlur stdDeviation=".5"/><feComposite in2="hardAlpha" k2="-1" k3="1" operator="arithmetic"/><feColorMatrix values="0 0 0 0 0 0 0 0 0 0 0 0 0 0 0 0 0 0 0.4 0"/><feBlend in2="shape" mode="multiply" result="effect2_innerShadow"/><feColorMatrix in="SourceAlpha" result="hardAlpha" values="0 0 0 0 0 0 0 0 0 0 0 0 0 0 0 0 0 0 127 0"/><feOffset dx="1"/><feGaussianBlur stdDeviation=".5"/><feComposite in2="hardAlpha" k2="-1" k3="1" operator="arithmetic"/><feColorMatrix values="0 0 0 0 1 0 0 0 0 0.916667 0 0 0 0 0.916667 0 0 0 0.15 0"/><feBlend in2="effect2_innerShadow" mode="luminosity" result="effect3_innerShadow"/></filter></defs></svg>